<?xml version="1.0" encoding="utf-8"?>
<!-- Generator: Adobe Illustrator 16.0.0, SVG Export Plug-In . SVG Version: 6.00 Build 0)  -->
<!DOCTYPE svg PUBLIC "-//W3C//DTD SVG 1.1//EN" "http://www.w3.org/Graphics/SVG/1.1/DTD/svg11.dtd">
<svg version="1.1" id="Layer_1" xmlns="http://www.w3.org/2000/svg" xmlns:xlink="http://www.w3.org/1999/xlink" x="0px" y="0px"
	 width="938px" height="1000px" viewBox="0 0 938 1000" enable-background="new 0 0 938 1000" xml:space="preserve">
<path fill="#FFFFFF" d="M833.75,715.315c28.333,0,52.708,8.464,73.125,25.392c20.416,16.927,30.625,37.482,30.625,61.664
	c0,23.491-10,43.7-30,60.627c-20,16.928-44.584,25.392-73.75,25.392h-730c-29.167,0-53.75-8.464-73.75-25.392
	c-20-16.927-30-37.136-30-60.627c0-24.182,10.208-44.737,30.625-61.664c20.416-16.928,44.791-25.392,73.125-25.392H833.75z
	 M833.75,413.731c29.166,0,53.75,8.464,73.75,25.391c20,16.928,30,37.137,30,60.628c0,23.491-10,43.701-30,60.628
	c-20,16.928-44.584,25.391-73.75,25.391h-730c-29.167,0-53.75-8.463-73.75-25.391C10,543.451,0,523.241,0,499.75
	c0-23.491,10-43.7,30-60.628c20-16.927,44.583-25.391,73.75-25.391H833.75z M833.75,111.11c29.166,0,53.75,8.464,73.75,25.391
	c20,16.928,30,37.137,30,60.628c0,24.182-10.209,44.737-30.625,61.664c-20.417,16.928-44.792,25.391-73.125,25.391h-730
	c-28.334,0-52.709-8.463-73.125-25.391C10.208,241.866,0,221.311,0,197.129c0-23.491,10-43.7,30-60.628
	c20-16.927,44.583-25.391,73.75-25.391H833.75z"/>
</svg>
